/* XPM */
static char *hole[] = {
/* width height num_colors chars_per_pixel */
"     7    13       80            2",
/* colors */
".. c #13120b",
".# c #15140c",
".a c #16150d",
".b c #1f1e13",
".c c #201f14",
".d c #2b291c",
".e c #2c2b1e",
".f c #353323",
".g c #353425",
".h c #363525",
".i c #3a3929",
".j c #474533",
".k c #585742",
".l c #5b5944",
".m c #5e5c46",
".n c #605d48",
".o c #605f48",
".p c #66634c",
".q c #7e7d63",
".r c #817d65",
".s c #868369",
".t c #86846a",
".u c #8b876d",
".v c #8b886e",
".w c #8d8c70",
".x c #8f8d71",
".y c #918f74",
".z c #949077",
".A c #949175",
".B c #969277",
".C c #99957b",
".D c #99967b",
".E c #9b987c",
".F c #9b997e",
".G c #9d997e",
".H c #9d9a80",
".I c #9e997d",
".J c #9e9b80",
".K c #a29e84",
".L c #a29f84",
".M c #a4a185",
".N c #a6a187",
".O c #a6a389",
".P c #a7a288",
".Q c #b0ad91",
".R c #b0af91",
".S c #b2ae92",
".T c #b9b498",
".U c #bdbc98",
".V c #c1be9b",
".W c #c2c1a2",
".X c #c4c09d",
".Y c #c4c29f",
".Z c #c6c49d",
".0 c #cac6a0",
".1 c #cccaaa",
".2 c #cfcda6",
".3 c #d1cda6",
".4 c #d1cdae",
".5 c #d1ceaa",
".6 c #d5d3af",
".7 c #d7d3b3",
".8 c #d7d5b3",
".9 c #d8d5b4",
"#. c #dcd8b7",
"## c #dcdab7",
"#a c #dedcb9",
"#b c #e0ddbd",
"#c c #e0deba",
"#d c #e2e0bc",
"#e c #e7e4c3",
"#f c #e9e6c0",
"#g c #e9e6c2",
"#h c #e9e7bd",
"#i c #e9e7c4",
"#j c #ebe9c1",
"#k c #ebe9c6",
"#l c #ebeac6",
"#m c #ebebc6",
"#n c #ebebc8",
/* pixels */
"#n.W.4#e.7.1#e",
"#i.R.K.T.Q.S#.",
"#c.F.z.N.L.O.9",
"#a.y.G.P.O.M#b",
"#d.x.C.G.J.H#e",
"#d.w.G.C.J.D#k",
"##.t.I.B.E.A#l",
".8.q.u.r.v.s#g",
"#m.k.p.n.l.m#f",
".6.g.f.f.i.j.5",
".Y.e.c.#...d.X",
".6.o.b.a.a.h.V",
"#j.U.0.3.2.Z#h"
};
