#define x026_width 100
#define x026_height 50
static unsigned char x026_bits[] = {
   0x00, 0x00, 0x00, 0x00, 0x00, 0x00, 0x00, 0x00, 0x00, 0x00, 0x00, 0x00,
   0x00, 0x00, 0x00, 0x00, 0x00, 0x00, 0x00, 0x00, 0x00, 0x00, 0x00, 0x00,
   0x00, 0x00, 0xfc, 0xff, 0xff, 0xff, 0xff, 0xff, 0xff, 0xff, 0xff, 0xff,
   0xff, 0x3f, 0x00, 0x04, 0x00, 0x00, 0x00, 0x00, 0x00, 0x00, 0x00, 0x00,
   0x00, 0x00, 0x40, 0x00, 0x24, 0x19, 0x63, 0x00, 0x00, 0x00, 0x00, 0x00,
   0x00, 0x00, 0x00, 0x80, 0x00, 0x24, 0xa5, 0x14, 0x00, 0x00, 0x00, 0x00,
   0x00, 0x00, 0x00, 0x00, 0x00, 0x01, 0xc4, 0x24, 0x72, 0x00, 0x00, 0x00,
   0x00, 0x00, 0x00, 0x00, 0x00, 0x00, 0x02, 0x24, 0x25, 0x91, 0x00, 0x00,
   0x00, 0x00, 0x00, 0x00, 0x00, 0x00, 0x00, 0x02, 0x24, 0x99, 0x67, 0x00,
   0x00, 0x00, 0x00, 0x00, 0x00, 0x00, 0x00, 0x00, 0x02, 0x04, 0x00, 0x00,
   0x00, 0x00, 0x00, 0x00, 0x00, 0x00, 0x00, 0x00, 0x00, 0x02, 0x04, 0x00,
   0x00, 0x00, 0x00, 0x00, 0x00, 0x00, 0x00, 0x00, 0x00, 0x00, 0x02, 0x04,
   0x00, 0x00, 0x00, 0x00, 0x00, 0x00, 0x00, 0x00, 0x00, 0x00, 0x00, 0x02,
   0x04, 0x00, 0x00, 0x00, 0x00, 0x00, 0x00, 0x00, 0x00, 0x00, 0x00, 0x00,
   0x02, 0x04, 0x00, 0x00, 0x00, 0x00, 0x00, 0x00, 0x00, 0x00, 0x00, 0x00,
   0x00, 0x02, 0x04, 0x00, 0x00, 0x00, 0x00, 0x00, 0x00, 0x00, 0x00, 0x00,
   0x00, 0x00, 0x02, 0x04, 0x00, 0x00, 0x00, 0x00, 0x00, 0x00, 0x00, 0x00,
   0x00, 0x00, 0x00, 0x02, 0xc4, 0x18, 0x42, 0x08, 0x21, 0x84, 0x10, 0x42,
   0x08, 0x21, 0x84, 0x10, 0x02, 0xc4, 0x18, 0x42, 0x08, 0x21, 0x84, 0x10,
   0x42, 0x08, 0x21, 0x84, 0x10, 0x02, 0x04, 0x00, 0x00, 0x00, 0x00, 0x00,
   0x00, 0x00, 0x00, 0x00, 0x00, 0x00, 0x02, 0x84, 0x10, 0x42, 0x08, 0x21,
   0x84, 0x10, 0x42, 0x08, 0x21, 0x84, 0x10, 0x02, 0x84, 0x10, 0x42, 0x08,
   0x21, 0x84, 0x10, 0x42, 0x08, 0x21, 0x84, 0x10, 0x02, 0x04, 0x00, 0x00,
   0x00, 0x00, 0x00, 0x00, 0x00, 0x00, 0x00, 0x00, 0x00, 0x02, 0x84, 0x10,
   0x43, 0x08, 0x21, 0x84, 0x10, 0x42, 0x08, 0x21, 0x84, 0x10, 0x02, 0x84,
   0x10, 0x43, 0x08, 0x21, 0x84, 0x10, 0x42, 0x08, 0x21, 0x84, 0x10, 0x02,
   0x04, 0x00, 0x00, 0x00, 0x00, 0x00, 0x00, 0x00, 0x00, 0x00, 0x00, 0x00,
   0x02, 0x84, 0x10, 0x42, 0x08, 0x21, 0x84, 0x10, 0x42, 0x08, 0x21, 0x84,
   0x10, 0x02, 0x84, 0x10, 0x42, 0x08, 0x21, 0x84, 0x10, 0x42, 0x08, 0x21,
   0x84, 0x10, 0x02, 0x04, 0x00, 0x00, 0x00, 0x00, 0x00, 0x00, 0x00, 0x00,
   0x00, 0x00, 0x00, 0x02, 0x84, 0x10, 0x42, 0x08, 0x21, 0x84, 0x10, 0x42,
   0x08, 0x21, 0x84, 0x10, 0x02, 0x84, 0x10, 0x42, 0x08, 0x21, 0x84, 0x10,
   0x42, 0x08, 0x21, 0x84, 0x10, 0x02, 0x04, 0x00, 0x00, 0x00, 0x00, 0x00,
   0x00, 0x00, 0x00, 0x00, 0x00, 0x00, 0x02, 0x84, 0x10, 0x42, 0x08, 0x21,
   0x84, 0x10, 0x42, 0x08, 0x21, 0x84, 0x10, 0x02, 0x84, 0x10, 0x42, 0x08,
   0x21, 0x84, 0x10, 0x42, 0x08, 0x21, 0x84, 0x10, 0x02, 0x04, 0x00, 0x00,
   0x00, 0x00, 0x00, 0x00, 0x00, 0x00, 0x00, 0x00, 0x00, 0x02, 0x84, 0x10,
   0x42, 0x08, 0x21, 0x84, 0x10, 0x42, 0x08, 0x21, 0x84, 0x10, 0x02, 0x84,
   0x10, 0x42, 0x08, 0x21, 0x84, 0x10, 0x42, 0x08, 0x21, 0x84, 0x10, 0x02,
   0x04, 0x00, 0x00, 0x00, 0x00, 0x00, 0x00, 0x00, 0x00, 0x00, 0x00, 0x00,
   0x02, 0xc4, 0x10, 0x42, 0x08, 0x21, 0x84, 0x10, 0x42, 0x08, 0x21, 0x84,
   0x10, 0x02, 0xc4, 0x10, 0x42, 0x08, 0x21, 0x84, 0x10, 0x42, 0x08, 0x21,
   0x84, 0x10, 0x02, 0x04, 0x00, 0x00, 0x00, 0x00, 0x00, 0x00, 0x00, 0x00,
   0x00, 0x00, 0x00, 0x02, 0x84, 0x10, 0x42, 0x08, 0x21, 0x84, 0x10, 0x42,
   0x08, 0x21, 0x84, 0x10, 0x02, 0x84, 0x10, 0x42, 0x08, 0x21, 0x84, 0x10,
   0x42, 0x08, 0x21, 0x84, 0x10, 0x02, 0x04, 0x00, 0x00, 0x00, 0x00, 0x00,
   0x00, 0x00, 0x00, 0x00, 0x00, 0x00, 0x02, 0x84, 0x10, 0x62, 0x08, 0x21,
   0x84, 0x10, 0x42, 0x08, 0x21, 0x84, 0x10, 0x02, 0x84, 0x10, 0x62, 0x08,
   0x21, 0x84, 0x10, 0x42, 0x08, 0x21, 0x84, 0x10, 0x02, 0x04, 0x00, 0x00,
   0x00, 0x00, 0x00, 0x00, 0x00, 0x00, 0x00, 0x00, 0x00, 0x02, 0x04, 0x00,
   0x00, 0x00, 0x00, 0x00, 0x00, 0x00, 0x00, 0x00, 0x00, 0x00, 0x02, 0xfc,
   0xff, 0xff, 0xff, 0xff, 0xff, 0xff, 0xff, 0xff, 0xff, 0xff, 0xff, 0x03,
   0x00, 0x00, 0x00, 0x00, 0x00, 0x00, 0x00, 0x00, 0x00, 0x00, 0x00, 0x00,
   0x00, 0x00, 0x00, 0x00, 0x00, 0x00, 0x00, 0x00, 0x00, 0x00, 0x00, 0x00,
   0x00, 0x00};
